<svg width="32" height="32" viewBox="0 0 32 32" fill="none" xmlns="http://www.w3.org/2000/svg">
<path d="M0 12.8C0 8.31958 0 6.07937 0.871948 4.36808C1.63893 2.86278 2.86278 1.63893 4.36808 0.871948C6.07937 0 8.31958 0 12.8 0H19.2C23.6804 0 25.9206 0 27.6319 0.871948C29.1372 1.63893 30.3611 2.86278 31.1281 4.36808C32 6.07937 32 8.31958 32 12.8V19.2C32 23.6804 32 25.9206 31.1281 27.6319C30.3611 29.1372 29.1372 30.3611 27.6319 31.1281C25.9206 32 23.6804 32 19.2 32H12.8C8.31958 32 6.07937 32 4.36808 31.1281C2.86278 30.3611 1.63893 29.1372 0.871948 27.6319C0 25.9206 0 23.6804 0 19.2V12.8Z" fill="#615EF3"/>
<path d="M17.4427 10.3507C17.4427 8.77155 16.165 7.47949 14.5714 7.47949H6.08691V10.3507H14.5571V21.6491H8.95816V13.5809H6.08691V21.6634C6.08691 23.2426 7.36462 24.5347 8.95816 24.5347H23.0416C24.6208 24.5347 25.9128 23.257 25.9128 21.6634V13.222C25.9128 11.6428 24.6351 10.3507 23.0416 10.3507H17.4283H17.4427ZM23.0416 21.6634H17.4427V13.222H23.0416V21.6634Z" fill="white"/>
</svg>
